<mxfile host="Electron" agent="Mozilla/5.0 (X11; Linux x86_64) AppleWebKit/537.36 (KHTML, like Gecko) draw.io/24.7.8 Chrome/128.0.6613.36 Electron/32.0.1 Safari/537.36" version="24.7.8">
  <diagram id="C5RBs43oDa-KdzZeNtuy" name="Page-1">
    <mxGraphModel dx="924" dy="559" grid="1" gridSize="10" guides="1" tooltips="1" connect="1" arrows="1" fold="1" page="1" pageScale="1" pageWidth="827" pageHeight="583" math="1" shadow="0">
      <root>
        <mxCell id="WIyWlLk6GJQsqaUBKTNV-0" />
        <mxCell id="WIyWlLk6GJQsqaUBKTNV-1" parent="WIyWlLk6GJQsqaUBKTNV-0" />
        <mxCell id="19" value="" style="edgeStyle=none;rounded=0;html=1;endArrow=classic;endFill=1;entryX=0;entryY=0.25;entryDx=0;entryDy=0;" parent="WIyWlLk6GJQsqaUBKTNV-1" source="AgOMpVHS2S-enR5WjLPw-52" target="SL2LETD5taLKHnRiA0Aw-3" edge="1">
          <mxGeometry relative="1" as="geometry" />
        </mxCell>
        <mxCell id="AgOMpVHS2S-enR5WjLPw-52" value="" style="ellipse;whiteSpace=wrap;html=1;aspect=fixed;" parent="WIyWlLk6GJQsqaUBKTNV-1" vertex="1">
          <mxGeometry x="204" y="182" width="30" height="30" as="geometry" />
        </mxCell>
        <mxCell id="AgOMpVHS2S-enR5WjLPw-58" value="" style="edgeStyle=orthogonalEdgeStyle;rounded=0;orthogonalLoop=1;jettySize=auto;html=1;" parent="WIyWlLk6GJQsqaUBKTNV-1" source="AgOMpVHS2S-enR5WjLPw-55" target="AgOMpVHS2S-enR5WjLPw-57" edge="1">
          <mxGeometry relative="1" as="geometry" />
        </mxCell>
        <mxCell id="AgOMpVHS2S-enR5WjLPw-55" value="&lt;font style=&quot;font-size: 18px;&quot;&gt;Plant&lt;/font&gt;" style="rounded=0;whiteSpace=wrap;html=1;" parent="WIyWlLk6GJQsqaUBKTNV-1" vertex="1">
          <mxGeometry x="528" y="182" width="101" height="60" as="geometry" />
        </mxCell>
        <mxCell id="AgOMpVHS2S-enR5WjLPw-57" value="&lt;font style=&quot;font-size: 18px;&quot;&gt;azimuth&lt;/font&gt;" style="shape=parallelogram;perimeter=parallelogramPerimeter;whiteSpace=wrap;html=1;fixedSize=1;" parent="WIyWlLk6GJQsqaUBKTNV-1" vertex="1">
          <mxGeometry x="674" y="192" width="100" height="40" as="geometry" />
        </mxCell>
        <mxCell id="AgOMpVHS2S-enR5WjLPw-59" value="" style="shape=waypoint;sketch=0;fillStyle=solid;size=6;pointerEvents=1;points=[];fillColor=none;resizable=0;rotatable=0;perimeter=centerPerimeter;snapToPoint=1;" parent="WIyWlLk6GJQsqaUBKTNV-1" vertex="1">
          <mxGeometry x="642" y="202" width="20" height="20" as="geometry" />
        </mxCell>
        <mxCell id="AgOMpVHS2S-enR5WjLPw-101" value="&lt;font style=&quot;font-size: 18px;&quot;&gt;+&lt;/font&gt;" style="text;html=1;align=center;verticalAlign=middle;resizable=0;points=[];autosize=1;strokeColor=none;fillColor=none;" parent="WIyWlLk6GJQsqaUBKTNV-1" vertex="1">
          <mxGeometry x="174" y="166" width="30" height="40" as="geometry" />
        </mxCell>
        <mxCell id="AgOMpVHS2S-enR5WjLPw-102" value="Integrator" style="text;html=1;align=center;verticalAlign=middle;resizable=0;points=[];autosize=1;strokeColor=none;fillColor=none;" parent="WIyWlLk6GJQsqaUBKTNV-1" vertex="1">
          <mxGeometry x="418" y="242" width="70" height="30" as="geometry" />
        </mxCell>
        <mxCell id="17" value="" style="edgeStyle=none;rounded=0;html=1;endArrow=classic;endFill=1;entryX=0;entryY=0.5;entryDx=0;entryDy=0;" parent="WIyWlLk6GJQsqaUBKTNV-1" target="AgOMpVHS2S-enR5WjLPw-55" edge="1" source="kv1_MmNUvCLRT5CAMSnz-35">
          <mxGeometry relative="1" as="geometry">
            <mxPoint x="468" y="212" as="sourcePoint" />
          </mxGeometry>
        </mxCell>
        <mxCell id="SL2LETD5taLKHnRiA0Aw-3" value="&lt;font style=&quot;font-size: 18px;&quot;&gt;+&amp;nbsp; &amp;nbsp;&amp;nbsp;&lt;br&gt;-&amp;nbsp; &amp;nbsp;&amp;nbsp;&lt;/font&gt;" style="rounded=0;whiteSpace=wrap;html=1;" parent="WIyWlLk6GJQsqaUBKTNV-1" vertex="1">
          <mxGeometry x="324" y="182" width="50" height="60" as="geometry" />
        </mxCell>
        <mxCell id="0" value="" style="shape=waypoint;sketch=0;fillStyle=solid;size=6;pointerEvents=1;points=[];fillColor=none;resizable=0;rotatable=0;perimeter=centerPerimeter;snapToPoint=1;strokeColor=none;" parent="WIyWlLk6GJQsqaUBKTNV-1" vertex="1">
          <mxGeometry x="264.5" y="272" width="20" height="20" as="geometry" />
        </mxCell>
        <mxCell id="13" value="" style="edgeStyle=none;rounded=0;html=1;endArrow=none;endFill=0;exitX=0;exitY=0.75;exitDx=0;exitDy=0;" parent="WIyWlLk6GJQsqaUBKTNV-1" edge="1" source="SL2LETD5taLKHnRiA0Aw-3">
          <mxGeometry relative="1" as="geometry">
            <mxPoint x="288.5" y="237.25" as="sourcePoint" />
            <mxPoint x="288.5" y="282.75" as="targetPoint" />
            <Array as="points">
              <mxPoint x="289" y="227" />
            </Array>
          </mxGeometry>
        </mxCell>
        <mxCell id="kv1_MmNUvCLRT5CAMSnz-39" value="" style="edgeStyle=orthogonalEdgeStyle;rounded=0;orthogonalLoop=1;jettySize=auto;html=1;entryX=0.5;entryY=0;entryDx=0;entryDy=0;" edge="1" parent="WIyWlLk6GJQsqaUBKTNV-1" source="21" target="AgOMpVHS2S-enR5WjLPw-52">
          <mxGeometry relative="1" as="geometry" />
        </mxCell>
        <mxCell id="21" value="" style="whiteSpace=wrap;html=1;aspect=fixed;" parent="WIyWlLk6GJQsqaUBKTNV-1" vertex="1">
          <mxGeometry x="179" y="53" width="80" height="80" as="geometry" />
        </mxCell>
        <mxCell id="26" value="" style="endArrow=none;html=1;targetPerimeterSpacing=0;endSize=0;" parent="WIyWlLk6GJQsqaUBKTNV-1" edge="1">
          <mxGeometry width="50" height="50" relative="1" as="geometry">
            <mxPoint x="218" y="123" as="sourcePoint" />
            <mxPoint x="218" y="73" as="targetPoint" />
            <Array as="points">
              <mxPoint x="218" y="93" />
            </Array>
          </mxGeometry>
        </mxCell>
        <mxCell id="30" value="" style="endArrow=none;html=1;endSize=0;targetPerimeterSpacing=0;entryX=0;entryY=0.856;entryDx=0;entryDy=0;entryPerimeter=0;" parent="WIyWlLk6GJQsqaUBKTNV-1" edge="1">
          <mxGeometry width="50" height="50" relative="1" as="geometry">
            <mxPoint x="218" y="123" as="sourcePoint" />
            <mxPoint x="179" y="122.48000000000002" as="targetPoint" />
          </mxGeometry>
        </mxCell>
        <mxCell id="31" value="" style="triangle;whiteSpace=wrap;html=1;" parent="WIyWlLk6GJQsqaUBKTNV-1" vertex="1">
          <mxGeometry x="409" y="172" width="60" height="80" as="geometry" />
        </mxCell>
        <mxCell id="32" value="" style="endArrow=classic;html=1;exitX=1;exitY=0.5;exitDx=0;exitDy=0;entryX=0;entryY=0.5;entryDx=0;entryDy=0;entryPerimeter=0;" parent="WIyWlLk6GJQsqaUBKTNV-1" source="SL2LETD5taLKHnRiA0Aw-3" target="31" edge="1">
          <mxGeometry width="50" height="50" relative="1" as="geometry">
            <mxPoint x="518" y="277" as="sourcePoint" />
            <mxPoint x="568" y="227" as="targetPoint" />
          </mxGeometry>
        </mxCell>
        <mxCell id="33" value="" style="endArrow=none;html=1;endFill=0;" parent="WIyWlLk6GJQsqaUBKTNV-1" edge="1">
          <mxGeometry width="50" height="50" relative="1" as="geometry">
            <mxPoint x="288" y="283" as="sourcePoint" />
            <mxPoint x="498" y="283" as="targetPoint" />
          </mxGeometry>
        </mxCell>
        <mxCell id="34" value="" style="endArrow=none;html=1;endFill=0;" parent="WIyWlLk6GJQsqaUBKTNV-1" edge="1">
          <mxGeometry width="50" height="50" relative="1" as="geometry">
            <mxPoint x="498" y="283" as="sourcePoint" />
            <mxPoint x="498" y="213" as="targetPoint" />
          </mxGeometry>
        </mxCell>
        <mxCell id="kv1_MmNUvCLRT5CAMSnz-34" value="" style="endArrow=none;html=1;endFill=0;targetPerimeterSpacing=0;" edge="1" parent="WIyWlLk6GJQsqaUBKTNV-1">
          <mxGeometry width="50" height="50" relative="1" as="geometry">
            <mxPoint x="498" y="283" as="sourcePoint" />
            <mxPoint x="498" y="213" as="targetPoint" />
          </mxGeometry>
        </mxCell>
        <mxCell id="kv1_MmNUvCLRT5CAMSnz-36" value="" style="edgeStyle=none;rounded=0;html=1;endArrow=none;endFill=0;entryDx=0;entryDy=0;" edge="1" parent="WIyWlLk6GJQsqaUBKTNV-1" target="kv1_MmNUvCLRT5CAMSnz-35">
          <mxGeometry relative="1" as="geometry">
            <mxPoint x="468" y="212" as="sourcePoint" />
            <mxPoint x="528" y="212" as="targetPoint" />
          </mxGeometry>
        </mxCell>
        <mxCell id="kv1_MmNUvCLRT5CAMSnz-35" value="" style="shape=waypoint;sketch=0;fillStyle=solid;size=6;pointerEvents=1;points=[];fillColor=none;resizable=0;rotatable=0;perimeter=centerPerimeter;snapToPoint=1;" vertex="1" parent="WIyWlLk6GJQsqaUBKTNV-1">
          <mxGeometry x="488" y="202" width="20" height="20" as="geometry" />
        </mxCell>
        <mxCell id="kv1_MmNUvCLRT5CAMSnz-37" value="steering" style="text;html=1;align=center;verticalAlign=middle;resizable=0;points=[];autosize=1;strokeColor=none;fillColor=none;" vertex="1" parent="WIyWlLk6GJQsqaUBKTNV-1">
          <mxGeometry x="458" y="183" width="70" height="30" as="geometry" />
        </mxCell>
        <mxCell id="kv1_MmNUvCLRT5CAMSnz-38" value="set_steering" style="text;html=1;align=center;verticalAlign=middle;resizable=0;points=[];autosize=1;strokeColor=none;fillColor=none;" vertex="1" parent="WIyWlLk6GJQsqaUBKTNV-1">
          <mxGeometry x="234.5" y="171" width="90" height="30" as="geometry" />
        </mxCell>
        <mxCell id="kv1_MmNUvCLRT5CAMSnz-40" value="" style="endArrow=none;html=1;targetPerimeterSpacing=0;endSize=0;" edge="1" parent="WIyWlLk6GJQsqaUBKTNV-1">
          <mxGeometry width="50" height="50" relative="1" as="geometry">
            <mxPoint x="223" y="123.5" as="sourcePoint" />
            <mxPoint x="223" y="73.5" as="targetPoint" />
            <Array as="points">
              <mxPoint x="223" y="95.5" />
            </Array>
          </mxGeometry>
        </mxCell>
        <mxCell id="kv1_MmNUvCLRT5CAMSnz-41" value="" style="endArrow=none;html=1;endSize=0;targetPerimeterSpacing=0;entryX=0;entryY=0.856;entryDx=0;entryDy=0;entryPerimeter=0;exitX=0.969;exitY=0.881;exitDx=0;exitDy=0;exitPerimeter=0;" edge="1" parent="WIyWlLk6GJQsqaUBKTNV-1" source="21">
          <mxGeometry width="50" height="50" relative="1" as="geometry">
            <mxPoint x="258" y="123.5" as="sourcePoint" />
            <mxPoint x="223" y="123" as="targetPoint" />
          </mxGeometry>
        </mxCell>
        <mxCell id="kv1_MmNUvCLRT5CAMSnz-42" value="" style="endArrow=none;html=1;rounded=0;" edge="1" parent="WIyWlLk6GJQsqaUBKTNV-1">
          <mxGeometry width="50" height="50" relative="1" as="geometry">
            <mxPoint x="217" y="73" as="sourcePoint" />
            <mxPoint x="223" y="73" as="targetPoint" />
          </mxGeometry>
        </mxCell>
        <mxCell id="kv1_MmNUvCLRT5CAMSnz-43" value="disturbance" style="text;html=1;align=center;verticalAlign=middle;resizable=0;points=[];autosize=1;strokeColor=none;fillColor=none;" vertex="1" parent="WIyWlLk6GJQsqaUBKTNV-1">
          <mxGeometry x="259" y="93" width="90" height="30" as="geometry" />
        </mxCell>
        <mxCell id="kv1_MmNUvCLRT5CAMSnz-44" value="PID&amp;nbsp; &amp;nbsp;" style="triangle;whiteSpace=wrap;html=1;" vertex="1" parent="WIyWlLk6GJQsqaUBKTNV-1">
          <mxGeometry x="110" y="156" width="60" height="80" as="geometry" />
        </mxCell>
        <mxCell id="kv1_MmNUvCLRT5CAMSnz-45" value="" style="endArrow=none;html=1;rounded=0;exitX=0;exitY=0.5;exitDx=0;exitDy=0;endFill=0;startArrow=classic;startFill=1;entryX=0.767;entryY=0.583;entryDx=0;entryDy=0;entryPerimeter=0;" edge="1" parent="WIyWlLk6GJQsqaUBKTNV-1" target="AgOMpVHS2S-enR5WjLPw-59">
          <mxGeometry width="50" height="50" relative="1" as="geometry">
            <mxPoint x="110" y="194" as="sourcePoint" />
            <mxPoint x="652" y="210" as="targetPoint" />
            <Array as="points">
              <mxPoint x="80" y="194" />
              <mxPoint x="80" y="310" />
              <mxPoint x="380" y="310" />
              <mxPoint x="652" y="310" />
            </Array>
          </mxGeometry>
        </mxCell>
        <mxCell id="kv1_MmNUvCLRT5CAMSnz-46" value="" style="endArrow=none;html=1;rounded=0;entryX=1.008;entryY=0.763;entryDx=0;entryDy=0;entryPerimeter=0;exitX=1;exitY=0.5;exitDx=0;exitDy=0;" edge="1" parent="WIyWlLk6GJQsqaUBKTNV-1" source="kv1_MmNUvCLRT5CAMSnz-44" target="AgOMpVHS2S-enR5WjLPw-101">
          <mxGeometry width="50" height="50" relative="1" as="geometry">
            <mxPoint x="140" y="282" as="sourcePoint" />
            <mxPoint x="190" y="232" as="targetPoint" />
          </mxGeometry>
        </mxCell>
        <mxCell id="kv1_MmNUvCLRT5CAMSnz-47" value="&lt;font style=&quot;font-size: 18px;&quot;&gt;+&lt;/font&gt;" style="text;html=1;align=center;verticalAlign=middle;resizable=0;points=[];autosize=1;strokeColor=none;fillColor=none;" vertex="1" parent="WIyWlLk6GJQsqaUBKTNV-1">
          <mxGeometry x="190" y="143" width="30" height="40" as="geometry" />
        </mxCell>
      </root>
    </mxGraphModel>
  </diagram>
</mxfile>
